<?xml version="1.0" standalone="no"?>
<!DOCTYPE svg PUBLIC "-//W3C//DTD SVG 20010904//EN"
 "http://www.w3.org/TR/2001/REC-SVG-20010904/DTD/svg10.dtd">
<svg version="1.0" xmlns="http://www.w3.org/2000/svg"
 width="1428.000000pt" height="632.000000pt" viewBox="0 0 1428.000000 632.000000"
 preserveAspectRatio="xMidYMid meet">

<g transform="translate(0.000000,632.000000) scale(0.100000,-0.100000)"
fill="#000000" stroke="none">
<path d="M0 3160 l0 -3160 7140 0 7140 0 0 3160 0 3160 -7140 0 -7140 0 0
-3160z m3148 2988 c103 -61 252 -150 332 -198 164 -98 410 -245 740 -440 124
-73 231 -138 239 -144 11 -8 9 -14 -10 -29 -58 -47 -257 -246 -252 -251 4 -3
323 -6 710 -6 387 0 703 -2 703 -5 0 -12 -284 -370 -292 -367 -4 1 -7 -2 -6
-6 2 -5 -41 -68 -95 -140 -54 -72 -110 -157 -125 -189 l-27 -58 0 -930 0 -930
27 -67 c15 -37 45 -93 66 -125 40 -58 149 -170 232 -238 25 -21 46 -38 47 -39
1 -1 -14 -11 -35 -21 -20 -11 -111 -63 -202 -116 -835 -485 -1545 -1058 -2197
-1771 l-51 -56 -114 121 c-540 577 -1125 1067 -1766 1478 -164 106 -402 248
-522 312 -52 27 -96 51 -98 52 -1 1 30 28 70 60 131 105 244 228 285 313 l38
76 3 904 c3 1024 7 965 -76 1074 -27 35 -86 113 -132 173 -46 61 -120 157
-164 215 -43 58 -107 141 -141 185 -80 104 -80 104 -53 103 13 0 336 0 718 1
l695 1 -132 131 c-73 72 -133 132 -133 134 0 4 -23 -9 665 397 182 107 361
213 399 236 37 23 70 42 72 42 2 0 34 19 71 42 81 50 317 188 321 188 2 0 88
-50 190 -112z m4171 -1038 c66 -25 133 -81 214 -183 66 -82 62 -17 62 -1072
l0 -960 -22 -47 c-45 -99 -166 -184 -275 -195 -76 -8 -181 12 -253 47 -86 42
-219 171 -236 230 -11 37 -14 228 -14 1015 l0 970 22 41 c40 74 159 157 253
177 58 12 186 0 249 -23z m834 15 c82 -21 130 -48 179 -101 24 -25 56 -60 72
-77 16 -17 40 -55 54 -85 l25 -54 4 -687 c2 -377 0 -814 -4 -971 l-9 -285 -28
-45 c-16 -25 -46 -58 -67 -75 -22 -16 -46 -35 -53 -42 -7 -7 -42 -22 -77 -34
-76 -25 -165 -22 -271 11 -64 20 -118 58 -225 162 -73 70 -68 -7 -71 1078 -3
1093 -7 1023 71 1100 104 103 256 143 400 105z m-1913 -49 c19 -24 38 -42 43
-39 4 2 7 22 7 44 l0 39 170 0 c106 0 170 -4 170 -10 0 -5 16 -27 35 -48 l34
-38 4 -1055 c3 -916 6 -1066 20 -1144 9 -49 16 -102 17 -117 l0 -28 -177 0
-178 0 -39 35 c-44 40 -50 42 -41 16 8 -25 -31 -69 -183 -208 -62 -57 -130
-123 -150 -147 -20 -25 -40 -45 -43 -45 -3 -1 -24 17 -47 39 l-42 39 0 1356 0
1355 183 0 182 0 35 -44z m3110 35 c0 -5 16 -24 35 -42 l35 -33 0 -162 c0
-161 0 -163 -26 -194 l-27 -31 -36 35 c-20 20 -42 36 -48 36 -6 0 -13 7 -17
15 -3 8 -15 15 -26 15 -20 0 -20 -2 -20 -995 0 -974 0 -995 20 -1046 l20 -51
-132 -134 c-72 -74 -137 -134 -144 -134 -6 0 -38 -16 -69 -35 -80 -48 -117
-46 -172 9 l-41 41 30 115 31 115 2 1028 c0 565 -2 1027 -5 1027 -3 0 -15 -7
-26 -15 -34 -26 -66 -17 -121 35 l-53 49 0 180 0 181 395 0 c233 0 395 -4 395
-9z m1058 -32 l38 -41 12 27 c8 18 9 24 1 19 -7 -4 -10 1 -7 12 3 18 16 19
167 22 l164 3 43 -46 44 -45 0 -1013 c0 -1024 1 -1043 36 -1289 l7 -48 -182 0
-182 0 -36 35 c-42 40 -47 43 -40 15 6 -23 -19 -54 -35 -44 -7 4 -8 2 -4 -4 4
-7 -38 -55 -106 -119 -136 -131 -154 -148 -196 -196 -18 -20 -36 -37 -41 -37
-4 0 -24 18 -44 40 l-36 41 -4 932 c-2 513 -2 1122 0 1355 l3 422 180 0 179 0
39 -41z m1372 -2 l39 -44 7 -689 c4 -379 3 -908 -1 -1176 l-7 -488 -167 0
c-166 0 -168 0 -191 25 -28 29 -40 32 -40 7 0 -10 -26 -36 -62 -62 -34 -25
-66 -50 -72 -56 -6 -5 -50 -40 -98 -77 -81 -62 -90 -67 -131 -65 -36 3 -53 11
-90 45 l-45 42 34 96 34 97 0 1109 c0 1202 -3 1139 55 1207 59 70 66 71 397
72 l298 0 40 -43z m945 -4 l40 -46 0 -1171 0 -1171 -166 -3 c-166 -2 -167 -2
-197 23 -36 30 -42 31 -42 7 0 -11 -35 -45 -92 -88 -50 -38 -96 -74 -102 -79
-6 -6 -35 -30 -64 -53 -47 -37 -60 -42 -100 -41 -40 2 -54 8 -92 43 l-45 41
35 95 35 95 5 1135 5 1136 34 42 c63 81 66 81 406 81 l300 -1 40 -45z m934 5
l40 -43 1 -166 0 -165 -27 -27 -28 -26 -53 50 c-29 27 -61 49 -72 49 -20 0
-20 -9 -20 -985 0 -970 0 -987 21 -1047 l20 -61 -133 -134 c-73 -73 -138 -133
-143 -133 -6 0 -33 -14 -60 -31 -29 -18 -65 -32 -91 -34 -37 -3 -46 1 -80 36
-20 21 -42 36 -47 32 -5 -3 -6 4 -1 18 4 13 19 65 33 114 l25 90 3 1038 c2
570 0 1037 -4 1037 -5 0 -17 -7 -27 -15 -33 -25 -63 -17 -117 31 l-52 46 -3
157 c-1 86 0 168 3 184 l5 27 384 0 383 0 40 -42z m-7431 -2939 c43 -15 56
-64 50 -196 -4 -92 -7 -105 -28 -123 -44 -38 -129 -14 -131 38 -3 88 0 234 5
250 4 11 19 25 34 31 36 13 34 13 70 0z m955 2 c14 -6 29 -23 36 -42 15 -45
14 -49 -13 -49 -18 0 -25 7 -30 31 -4 22 -11 30 -23 27 -24 -4 -29 -55 -9 -77
9 -10 13 -21 9 -26 -5 -4 -3 -5 3 -2 7 4 26 -9 43 -28 60 -68 30 -175 -48
-175 -38 0 -71 34 -71 73 0 24 4 28 22 25 13 -2 24 -11 26 -23 11 -58 52 -48
52 12 0 27 -9 42 -44 77 -53 51 -66 97 -42 144 21 41 44 50 89 33z m947 -11
c26 -26 27 -80 1 -80 -13 0 -20 10 -25 31 -8 41 -40 37 -44 -7 -3 -26 6 -40
47 -83 46 -46 51 -55 51 -97 0 -77 -69 -120 -128 -78 -29 20 -32 84 -3 84 13
0 20 -10 25 -31 5 -25 10 -30 28 -27 19 2 24 10 26 41 3 35 -1 43 -43 82 -40
36 -48 50 -52 88 -5 39 -2 49 20 71 31 31 70 33 97 6z m753 9 c29 -16 37 -28
37 -61 0 -23 -4 -28 -25 -28 -20 0 -25 5 -25 26 0 21 -4 25 -22 22 -22 -3 -23
-8 -26 -108 -3 -118 2 -150 23 -150 15 0 34 27 32 45 -1 6 8 11 21 13 18 3 22
-1 22 -25 0 -16 -9 -39 -20 -51 -33 -35 -100 -27 -119 14 -14 32 -14 222 0
263 16 45 60 62 102 40z m297 -19 c0 -13 -8 -20 -27 -22 -32 -3 -29 10 -31
-173 -2 -112 -3 -121 -22 -122 -18 -2 -20 6 -22 145 l-3 147 -27 3 c-20 2 -28
9 -28 22 0 17 9 19 73 22 84 3 87 3 87 -22z m152 -140 c-2 -91 -7 -169 -13
-175 -21 -21 -29 18 -35 169 -7 165 -4 180 36 173 13 -2 15 -27 12 -167z m243
164 c32 -13 45 -59 45 -162 0 -142 -18 -182 -84 -182 -69 0 -86 35 -86 175 0
106 8 138 39 162 17 13 60 17 86 7z m325 -170 c0 -99 -4 -165 -10 -169 -6 -3
-19 -4 -29 0 -15 4 -25 27 -41 98 -32 136 -39 138 -40 9 0 -103 -2 -113 -17
-110 -16 3 -18 20 -21 171 l-2 167 29 0 c29 0 30 -2 50 -89 12 -49 21 -96 21
-105 0 -9 4 -16 9 -16 6 0 7 39 4 94 -7 109 -3 127 26 119 20 -5 21 -12 21
-169z m543 165 c29 -16 37 -28 37 -62 0 -24 -4 -28 -22 -25 -14 2 -24 12 -28
28 -9 39 -34 31 -38 -11 -3 -32 2 -40 37 -68 98 -78 68 -218 -41 -197 -29 5
-38 13 -47 38 -16 46 -14 58 13 58 19 0 25 -6 28 -27 3 -31 35 -44 49 -21 22
33 9 68 -41 117 -45 44 -50 53 -50 92 0 49 6 60 35 77 26 15 41 15 68 1z m440
-21 c14 -17 17 -40 17 -145 0 -118 -1 -125 -25 -148 -15 -16 -36 -25 -55 -25
-19 0 -40 9 -55 25 -24 23 -25 30 -25 139 0 65 5 126 11 140 22 47 96 54 132
14z m955 5 c6 -9 12 -30 12 -46 0 -24 -4 -28 -22 -25 -14 2 -24 12 -28 28 -8
34 -32 32 -41 -3 -7 -26 -2 -34 41 -76 52 -51 66 -83 56 -133 -9 -45 -33 -68
-71 -68 -43 0 -75 27 -78 65 -2 24 2 31 19 33 17 2 23 -4 28 -28 5 -26 10 -31
28 -28 18 2 24 10 26 38 3 30 -4 42 -48 87 -51 52 -60 80 -44 139 12 43 93 55
122 17z m1307 2 c14 -13 25 -36 25 -50 0 -20 -5 -25 -25 -25 -20 0 -25 5 -25
25 0 20 -5 25 -24 25 -32 0 -36 -15 -36 -135 0 -107 10 -135 45 -121 21 8 21
101 0 110 -27 10 -5 36 31 36 l34 0 0 -89 c0 -87 -12 -121 -31 -90 -6 11 -11
11 -21 1 -18 -18 -63 -15 -83 7 -14 17 -17 39 -17 146 1 143 4 158 35 173 36
18 66 13 92 -13z m-7246 -8 c5 -13 12 -45 16 -70 4 -26 10 -47 14 -47 4 0 13
30 21 68 14 61 17 67 42 70 l26 3 -30 -93 c-17 -51 -33 -127 -37 -168 -5 -60
-9 -75 -23 -78 -15 -3 -18 5 -18 51 0 47 -12 98 -60 260 -8 24 -6 27 16 27 16
0 27 -8 33 -23z m541 -104 c0 -153 5 -175 34 -171 20 3 21 9 24 151 l3 147 24
0 25 0 0 -150 c0 -137 -2 -152 -20 -170 -24 -24 -77 -26 -108 -4 -21 15 -22
21 -22 170 0 147 1 154 20 154 19 0 20 -7 20 -127z m370 107 c26 -26 28 -101
3 -125 -13 -13 -14 -18 -3 -25 15 -10 26 -155 12 -164 -6 -3 -17 -3 -26 0 -12
5 -16 21 -16 74 0 67 -7 80 -40 80 -5 0 -10 -35 -12 -77 -3 -70 -5 -78 -23
-78 -19 0 -20 8 -23 168 l-2 167 55 0 c42 0 60 -5 75 -20z m650 12 c0 -4 11
-76 25 -160 14 -84 25 -157 25 -163 0 -6 -10 -9 -22 -7 -18 2 -24 12 -29 41
-12 75 -56 79 -73 7 -9 -35 -16 -45 -31 -45 -11 0 -19 5 -19 10 15 101 47 303
50 313 4 13 74 17 74 4z m280 -12 c0 -16 -7 -20 -30 -20 l-30 0 0 -149 c0
-147 0 -148 -22 -147 -23 1 -23 3 -23 146 l0 145 -28 3 c-19 2 -27 9 -27 23 0
17 8 19 80 19 73 0 80 -2 80 -20z m150 -144 c0 -91 -4 -167 -9 -170 -5 -4 -16
-3 -25 0 -14 5 -16 29 -16 170 l0 164 25 0 25 0 0 -164z m510 144 c0 -17 -7
-20 -40 -20 l-40 0 0 -50 0 -50 40 0 c33 0 40 -3 40 -20 0 -17 -7 -20 -40 -20
l-40 0 0 -80 c0 -73 -2 -80 -20 -80 -19 0 -20 7 -20 170 l0 170 60 0 c53 0 60
-2 60 -20z m215 -2 c11 -50 45 -271 45 -294 0 -48 -47 -15 -52 36 -3 32 -6 35
-33 35 -28 0 -30 -3 -33 -42 -2 -27 -9 -43 -19 -47 -29 -12 -35 9 -24 80 7 38
16 98 21 134 18 122 18 120 56 120 27 0 35 -5 39 -22z m1603 -145 c-3 -160 -4
-168 -23 -168 -19 0 -20 8 -23 168 l-2 167 25 0 25 0 -2 -167z m854 20 l3
-148 25 0 25 0 3 148 3 147 24 0 25 0 0 -145 c0 -142 -1 -147 -25 -170 -24
-25 -76 -34 -102 -17 -24 15 -33 67 -33 198 l0 134 25 0 24 0 3 -147z m362
132 c24 -25 30 -79 12 -116 -11 -22 -13 -36 -6 -49 6 -10 10 -51 10 -90 0 -63
-2 -71 -17 -68 -14 2 -19 17 -23 68 -6 74 -13 90 -41 90 -17 0 -19 -7 -19 -80
0 -73 -2 -80 -20 -80 -24 0 -23 -10 -25 183 l-1 157 57 0 c38 0 63 -5 73 -15z
m676 -4 c0 -14 -8 -21 -26 -23 l-26 -3 -2 -145 c-1 -138 -2 -145 -21 -145 -19
0 -20 8 -23 148 l-3 147 -29 0 c-23 0 -30 4 -30 20 0 18 7 20 80 20 72 0 80
-2 80 -19z m226 11 c34 -22 44 -93 19 -130 -11 -15 -13 -27 -6 -39 5 -10 11
-49 12 -87 4 -66 3 -69 -18 -71 -22 -2 -23 2 -23 65 0 68 -14 97 -42 88 -12
-4 -14 -17 -17 -110 -1 -41 -3 -46 -21 -41 -19 5 -20 14 -20 169 l0 164 53 0
c28 0 57 -4 63 -8z m284 -12 c0 -17 -7 -20 -40 -20 l-40 0 0 -50 0 -50 35 0
c28 0 35 -4 35 -20 0 -16 -7 -20 -35 -20 l-35 0 0 -55 0 -55 40 0 c33 0 40 -4
40 -19 0 -23 -11 -27 -75 -26 l-50 0 -3 168 -2 167 65 0 c58 0 65 -2 65 -20z
m196 -83 c12 -54 25 -101 28 -105 3 -3 6 43 6 101 0 100 1 107 20 107 19 0 20
-7 20 -164 0 -91 -4 -167 -8 -170 -5 -3 -17 -3 -28 0 -15 4 -23 26 -41 106
-12 56 -26 105 -30 109 -5 5 -7 -39 -5 -97 4 -108 -1 -130 -31 -118 -15 5 -17
26 -17 171 l0 164 32 -3 c31 -3 32 -4 54 -101z m614 84 c0 -14 -8 -21 -27 -23
l-28 -3 -3 -147 c-2 -140 -4 -148 -22 -148 -19 0 -20 7 -20 150 l0 150 -30 0
c-23 0 -30 4 -30 20 0 18 7 20 80 20 72 0 80 -2 80 -19z m150 -45 c0 -63 0
-64 30 -68 17 -3 32 -2 35 0 3 3 5 34 5 69 0 56 2 63 20 63 19 0 20 -7 20
-170 0 -162 -1 -170 -20 -170 -17 0 -19 8 -22 82 l-3 82 -30 0 -30 0 -3 -82
c-3 -74 -5 -82 -22 -82 -20 0 -22 22 -22 205 0 120 2 135 22 135 18 0 20 -7
20 -64z"/>
<path d="M2928 6090 c-2 -7 -230 -144 -638 -384 -174 -103 -512 -304 -553
-329 l-47 -29 39 -47 c22 -25 100 -116 174 -201 l135 -155 -741 -5 -742 -5 21
-20 c11 -11 68 -82 125 -159 240 -319 257 -345 269 -399 8 -37 10 -338 8
-1047 l-3 -995 -28 -48 c-30 -51 -130 -157 -206 -219 l-44 -36 24 -12 c211
-109 667 -408 984 -646 364 -272 684 -552 1027 -897 l218 -219 237 239 c393
397 731 688 1133 978 268 193 659 443 864 552 16 9 13 13 -27 36 -25 15 -68
53 -97 84 -90 101 -136 231 -149 418 -10 147 6 1734 18 1801 20 106 82 205
229 365 72 78 172 208 172 223 0 3 -331 7 -735 8 l-735 3 43 46 c126 136 302
332 305 339 3 7 -192 130 -309 195 -20 11 -107 63 -193 115 -86 52 -168 102
-183 111 -16 9 -104 62 -198 119 -93 56 -190 114 -215 128 -25 14 -67 40 -95
57 -59 38 -83 47 -87 35z m-68 -2886 l0 -2607 -43 39 c-23 22 -87 80 -142 129
-55 50 -124 113 -155 141 -30 28 -73 66 -95 86 -22 19 -96 86 -165 149 -69 63
-149 135 -178 161 -28 25 -52 49 -52 53 0 3 46 61 103 128 l102 122 0 810 0
810 -217 3 -218 2 0 -710 0 -711 40 -161 c23 -88 40 -164 38 -169 -3 -9 -131
74 -625 407 l-242 162 84 111 85 110 0 1073 0 1073 -44 65 c-24 36 -72 104
-105 153 l-62 87 511 0 511 0 -97 -141 -96 -141 -6 -201 c-8 -241 0 -732 11
-744 12 -12 417 -17 429 -5 6 6 7 309 2 828 l-7 819 -51 43 c-28 23 -71 60
-95 81 l-44 38 69 45 c182 117 209 134 225 143 10 6 54 33 99 60 45 28 95 59
113 70 33 20 247 157 282 181 11 7 23 13 28 13 4 1 7 -1172 7 -2605z m316
2525 c71 -44 145 -91 164 -103 81 -53 212 -137 307 -197 56 -35 99 -68 96 -74
-4 -5 -3 -7 2 -3 8 8 60 -15 87 -39 16 -14 10 -23 -82 -110 l-100 -95 0 -807
0 -806 198 1 c108 0 205 1 215 2 18 2 19 22 15 475 l-3 472 -81 105 c-44 58
-93 122 -108 143 l-28 37 521 0 521 0 -33 -49 c-17 -27 -60 -90 -94 -140 l-63
-91 0 -1109 0 -1109 70 -93 c39 -52 70 -97 70 -100 0 -8 -49 -41 -525 -353
-165 -109 -313 -207 -329 -218 -26 -19 -29 -19 -22 -3 3 10 29 96 56 191 l50
173 0 689 c0 557 -3 692 -13 700 -9 8 -82 11 -215 10 l-202 -1 0 -813 0 -812
93 -112 c120 -145 115 -139 96 -153 -18 -14 -156 -138 -263 -238 -134 -124
-319 -294 -427 -391 l-108 -98 -4 508 c-6 753 -3 4692 4 4692 3 0 63 -36 135
-81z"/>
<path d="M7085 5100 c-99 -21 -182 -73 -227 -143 l-30 -47 0 -972 1 -971 26
-53 c43 -88 149 -143 290 -151 76 -4 99 -2 146 16 74 28 141 88 174 154 l25
53 -2 965 -3 964 -29 45 c-54 86 -150 137 -271 145 -33 2 -78 0 -100 -5z m120
-272 c3 -13 4 -428 3 -923 l-3 -900 -28 -9 c-19 -7 -33 -7 -45 0 -16 10 -17
77 -20 913 -1 611 1 908 8 922 16 29 78 27 85 -3z"/>
<path d="M7964 5100 c-100 -21 -194 -87 -232 -163 l-22 -45 2 -968 3 -969 23
-43 c71 -133 319 -195 472 -118 61 31 111 80 143 141 l22 40 0 960 0 960 -25
49 c-30 58 -91 111 -159 137 -60 22 -169 32 -227 19z m119 -258 c9 -13 15
-1253 8 -1557 l-6 -290 -30 -3 c-64 -5 -60 -72 -60 928 0 995 -4 930 57 930
15 0 29 -3 31 -8z"/>
<path d="M5877 5083 c-6 -6 -10 -2603 -4 -2603 3 0 167 151 256 236 l75 72
-12 40 c-9 28 -12 169 -12 485 l0 445 31 11 c18 6 49 11 70 11 l39 0 0 -495 0
-495 155 0 c85 0 155 3 155 8 -1 4 -8 48 -17 97 -14 79 -17 220 -19 1140 l-4
1050 -135 3 -135 3 0 -460 c0 -253 -3 -467 -6 -476 -9 -23 -57 -45 -99 -45
l-35 0 0 490 0 490 -148 0 c-82 0 -152 -3 -155 -7z"/>
<path d="M8598 4953 c-4 -175 -2 -194 20 -186 9 4 39 26 65 51 40 37 53 43 75
37 15 -4 30 -12 34 -18 5 -7 7 -509 5 -1117 l-2 -1105 -26 -92 c-24 -86 -25
-93 -9 -93 45 0 139 65 245 168 158 154 147 137 125 202 -19 53 -19 99 -20
1048 l0 992 27 11 c47 18 101 2 126 -37 12 -18 25 -34 28 -34 24 0 29 37 27
166 l-3 139 -357 3 -357 2 -3 -137z"/>
<path d="M10040 3785 c0 -882 3 -1305 10 -1305 6 0 15 10 21 23 6 12 56 60
110 107 138 117 192 178 185 204 -21 71 -25 154 -26 523 0 352 2 412 14 422 9
7 42 15 76 18 l60 6 0 -497 0 -496 156 0 156 0 -5 23 c-4 12 -13 78 -22 147
-13 105 -15 284 -15 1127 l0 1003 -135 0 -135 0 0 -459 c0 -253 -3 -467 -6
-476 -8 -21 -51 -42 -94 -46 l-35 -4 -3 493 -2 492 -155 0 -155 0 0 -1305z"/>
<path d="M11125 5074 c-16 -8 -38 -23 -49 -32 -48 -44 -46 2 -46 -1181 l0
-1109 -30 -85 c-36 -103 -36 -107 -7 -107 15 0 74 40 160 109 75 60 141 111
148 113 9 3 12 119 13 488 l1 484 50 38 c28 21 54 38 58 38 5 0 7 -234 5 -520
l-3 -520 145 0 145 0 0 1148 0 1147 -280 3 c-239 2 -284 0 -310 -14z m286
-215 c16 -31 26 -643 10 -689 -12 -37 -64 -80 -95 -80 -17 0 -18 19 -14 376
l4 376 23 19 c31 25 58 24 72 -2z"/>
<path d="M12084 5083 c-11 -2 -41 -24 -65 -49 l-44 -45 -5 -1142 c-5 -1136 -5
-1142 -26 -1192 -38 -89 -39 -95 -9 -95 18 0 58 26 128 83 56 45 124 98 151
117 l49 35 -6 465 c-4 256 -3 473 1 482 7 15 94 88 106 88 3 0 6 -234 6 -520
l0 -520 145 0 145 0 0 1150 0 1150 -277 -1 c-153 -1 -287 -4 -299 -6z m273
-243 c8 -24 12 -135 12 -358 l1 -323 -24 -23 c-36 -37 -83 -59 -89 -42 -3 7
-3 178 0 379 6 345 7 368 25 387 29 31 61 22 75 -20z"/>
<path d="M12880 4925 c0 -188 -3 -185 84 -108 51 46 71 51 102 29 19 -14 19
-37 19 -1098 l0 -1083 -24 -95 c-12 -52 -25 -105 -28 -117 -7 -31 9 -29 82 6
54 26 194 152 293 262 l22 25 -20 59 c-19 57 -20 83 -20 1047 l0 988 27 11
c46 17 100 2 129 -37 45 -58 54 -35 54 132 l0 144 -360 0 -360 0 0 -165z"/>
<path d="M13496 2643 c-6 -14 -5 -15 5 -6 7 7 10 15 7 18 -3 3 -9 -2 -12 -12z"/>
<path d="M6166 2084 c-10 -26 -7 -204 4 -225 6 -10 17 -19 25 -19 25 0 35 37
35 134 0 111 -4 126 -35 126 -13 0 -26 -7 -29 -16z"/>
<path d="M9510 2083 c-1 -10 -3 -56 -6 -103 -3 -49 -1 -97 5 -112 13 -35 46
-38 55 -5 10 37 7 197 -4 218 -13 24 -50 25 -50 2z"/>
<path d="M10801 2097 c-7 -7 -11 -56 -11 -123 0 -116 10 -144 45 -130 12 4 15
28 15 130 0 113 -2 124 -19 129 -11 2 -24 0 -30 -6z"/>
<path d="M6729 2097 c-3 -42 -1 -99 4 -103 3 -3 15 0 27 6 30 16 25 89 -7 101
-16 6 -23 5 -24 -4z"/>
<path d="M7417 2070 c-3 -14 -8 -49 -11 -77 -5 -48 -3 -53 14 -53 22 0 25 27
11 110 -6 38 -9 41 -14 20z"/>
<path d="M8566 2035 c-4 -27 -9 -60 -12 -72 -4 -19 0 -23 20 -23 24 0 25 2 19
53 -10 85 -20 100 -27 42z"/>
<path d="M11350 2052 c0 -56 4 -62 31 -55 22 6 34 42 25 78 -5 18 -13 25 -31
25 -23 0 -25 -4 -25 -48z"/>
<path d="M12266 2103 c-9 -9 -7 -101 2 -106 4 -3 17 -1 30 4 20 8 23 15 20 50
-2 32 -8 44 -25 50 -11 4 -24 5 -27 2z"/>
</g>
</svg>
